<svg width="795" height="200" viewBox="0 0 795 200" fill="none" xmlns="http://www.w3.org/2000/svg">
<path d="M172.296 146.512C166.067 146.512 160.435 145.104 155.4 142.288C150.451 139.387 146.525 135.376 143.624 130.256C140.723 125.136 139.272 119.248 139.272 112.592C139.272 105.851 140.723 99.9627 143.624 94.928C146.525 89.808 150.451 85.84 155.4 83.024C160.435 80.1227 166.067 78.672 172.296 78.672C178.184 78.672 183.475 80.0373 188.168 82.768C192.947 85.4987 196.701 89.3813 199.432 94.416C202.248 99.4507 203.656 105.509 203.656 112.592C203.656 119.504 202.291 125.52 199.56 130.64C196.829 135.76 193.075 139.685 188.296 142.416C183.603 145.147 178.269 146.512 172.296 146.512ZM172.68 140.752C177.8 140.752 182.365 139.6 186.376 137.296C190.472 134.907 193.672 131.579 195.976 127.312C198.365 123.045 199.56 118.139 199.56 112.592C199.56 106.96 198.365 102.053 195.976 97.872C193.672 93.6053 190.472 90.32 186.376 88.016C182.365 85.6267 177.8 84.432 172.68 84.432C167.56 84.432 162.952 85.6267 158.856 88.016C154.845 90.32 151.645 93.6053 149.256 97.872C146.952 102.053 145.8 106.96 145.8 112.592C145.8 118.139 146.952 123.045 149.256 127.312C151.645 131.579 154.845 134.907 158.856 137.296C162.952 139.6 167.56 140.752 172.68 140.752ZM199.688 146V124.112L200.84 112.464L199.56 100.816V51.024H205.96V146H199.688ZM275.055 146V130.768L274.799 128.464V103.376C274.799 97.1467 273.092 92.4107 269.679 89.168C266.351 85.9253 261.444 84.304 254.959 84.304C250.351 84.304 246.042 85.1147 242.031 86.736C238.106 88.272 234.735 90.2773 231.919 92.752L228.719 88.144C232.047 85.1573 236.058 82.8533 240.751 81.232C245.444 79.5253 250.351 78.672 255.471 78.672C263.748 78.672 270.106 80.7627 274.543 84.944C278.98 89.1253 281.199 95.3547 281.199 103.632V146H275.055ZM250.991 146.512C246.042 146.512 241.732 145.744 238.063 144.208C234.479 142.587 231.706 140.325 229.743 137.424C227.866 134.523 226.927 131.195 226.927 127.44C226.927 124.027 227.695 120.955 229.231 118.224C230.852 115.408 233.498 113.147 237.167 111.44C240.836 109.648 245.743 108.752 251.887 108.752H276.463V113.744H252.015C245.103 113.744 240.239 115.024 237.423 117.584C234.692 120.144 233.327 123.344 233.327 127.184C233.327 131.451 234.948 134.864 238.191 137.424C241.434 139.984 245.999 141.264 251.887 141.264C257.519 141.264 262.255 139.984 266.095 137.424C270.02 134.864 272.922 131.152 274.799 126.288L276.591 130.64C274.799 135.504 271.727 139.387 267.375 142.288C263.108 145.104 257.647 146.512 250.991 146.512ZM307.568 146V79.184H313.712V97.488L313.072 95.44C314.949 90.064 318.107 85.9253 322.544 83.024C326.981 80.1227 332.528 78.672 339.184 78.672V84.944C338.928 84.944 338.672 84.944 338.416 84.944C338.16 84.8587 337.904 84.816 337.648 84.816C330.224 84.816 324.421 87.1627 320.24 91.856C316.059 96.464 313.968 102.907 313.968 111.184V146H307.568ZM361.682 127.568L361.81 119.504L405.97 79.184H414.162L384.85 106.704L381.01 109.904L361.682 127.568ZM356.818 146V51.024H363.218V146H356.818ZM409.042 146L379.858 109.392L384.21 104.656L416.978 146H409.042ZM455.171 146.512C448.942 146.512 443.31 145.104 438.275 142.288C433.326 139.387 429.4 135.376 426.499 130.256C423.598 125.136 422.147 119.248 422.147 112.592C422.147 105.851 423.598 99.9627 426.499 94.928C429.4 89.808 433.326 85.84 438.275 83.024C443.31 80.1227 448.942 78.672 455.171 78.672C461.059 78.672 466.35 80.0373 471.043 82.768C475.822 85.4987 479.576 89.3813 482.307 94.416C485.123 99.4507 486.531 105.509 486.531 112.592C486.531 119.504 485.166 125.52 482.435 130.64C479.704 135.76 475.95 139.685 471.171 142.416C466.478 145.147 461.144 146.512 455.171 146.512ZM455.555 140.752C460.675 140.752 465.24 139.6 469.251 137.296C473.347 134.907 476.547 131.579 478.851 127.312C481.24 123.045 482.435 118.139 482.435 112.592C482.435 106.96 481.24 102.053 478.851 97.872C476.547 93.6053 473.347 90.32 469.251 88.016C465.24 85.6267 460.675 84.432 455.555 84.432C450.435 84.432 445.827 85.6267 441.731 88.016C437.72 90.32 434.52 93.6053 432.131 97.872C429.827 102.053 428.675 106.96 428.675 112.592C428.675 118.139 429.827 123.045 432.131 127.312C434.52 131.579 437.72 134.907 441.731 137.296C445.827 139.6 450.435 140.752 455.555 140.752ZM482.563 146V124.112L483.715 112.464L482.435 100.816V51.024H488.835V146H482.563ZM541.93 146.512C535.53 146.512 529.813 145.061 524.778 142.16C519.829 139.259 515.861 135.248 512.874 130.128C509.973 125.008 508.522 119.163 508.522 112.592C508.522 105.936 509.973 100.091 512.874 95.056C515.861 89.936 519.829 85.9253 524.778 83.024C529.813 80.1227 535.53 78.672 541.93 78.672C548.33 78.672 554.047 80.1227 559.082 83.024C564.117 85.9253 568.085 89.936 570.986 95.056C573.887 100.091 575.338 105.936 575.338 112.592C575.338 119.163 573.887 125.008 570.986 130.128C568.085 135.248 564.117 139.259 559.082 142.16C554.047 145.061 548.33 146.512 541.93 146.512ZM541.93 140.752C547.05 140.752 551.658 139.6 555.754 137.296C559.85 134.907 563.05 131.579 565.354 127.312C567.658 123.045 568.81 118.139 568.81 112.592C568.81 106.96 567.658 102.053 565.354 97.872C563.05 93.6053 559.85 90.32 555.754 88.016C551.658 85.6267 547.05 84.432 541.93 84.432C536.81 84.432 532.202 85.6267 528.106 88.016C524.095 90.32 520.895 93.6053 518.506 97.872C516.202 102.053 515.05 106.96 515.05 112.592C515.05 118.139 516.202 123.045 518.506 127.312C520.895 131.579 524.095 134.907 528.106 137.296C532.202 139.6 536.81 140.752 541.93 140.752ZM678.393 78.672C683.769 78.672 688.42 79.7387 692.345 81.872C696.356 83.92 699.47 87.0773 701.689 91.344C703.908 95.5253 705.017 100.731 705.017 106.96V146H698.617V107.472C698.617 99.9627 696.782 94.2453 693.113 90.32C689.444 86.3947 684.324 84.432 677.753 84.432C672.718 84.432 668.366 85.4987 664.697 87.632C661.028 89.7653 658.212 92.752 656.249 96.592C654.286 100.432 653.305 105.04 653.305 110.416V146H646.905V107.472C646.905 99.9627 645.07 94.2453 641.401 90.32C637.732 86.3947 632.612 84.432 626.041 84.432C621.006 84.432 616.654 85.4987 612.985 87.632C609.316 89.7653 606.5 92.752 604.537 96.592C602.574 100.432 601.593 105.04 601.593 110.416V146H595.193V79.184H601.337V97.616L600.441 95.568C602.404 90.3627 605.689 86.2667 610.297 83.28C614.905 80.208 620.452 78.672 626.937 78.672C633.593 78.672 639.182 80.3787 643.705 83.792C648.313 87.12 651.214 92.112 652.409 98.768L650.233 97.872C652.025 92.1547 655.396 87.5467 660.345 84.048C665.294 80.464 671.31 78.672 678.393 78.672ZM758.579 146.512C751.838 146.512 745.864 145.061 740.659 142.16C735.539 139.259 731.486 135.248 728.499 130.128C725.598 125.008 724.147 119.163 724.147 112.592C724.147 105.936 725.512 100.091 728.243 95.056C731.059 89.936 734.899 85.9253 739.763 83.024C744.627 80.1227 750.088 78.672 756.147 78.672C762.206 78.672 767.624 80.08 772.403 82.896C777.267 85.712 781.064 89.68 783.795 94.8C786.611 99.8347 788.019 105.68 788.019 112.336C788.019 112.592 787.976 112.891 787.891 113.232C787.891 113.488 787.891 113.787 787.891 114.128H728.883V109.136H784.435L781.875 111.568C781.96 106.363 780.851 101.712 778.547 97.616C776.328 93.4347 773.299 90.192 769.459 87.888C765.619 85.4987 761.182 84.304 756.147 84.304C751.198 84.304 746.76 85.4987 742.835 87.888C738.995 90.192 735.966 93.4347 733.747 97.616C731.528 101.712 730.419 106.405 730.419 111.696V112.848C730.419 118.309 731.614 123.173 734.003 127.44C736.478 131.621 739.848 134.907 744.115 137.296C748.382 139.6 753.246 140.752 758.707 140.752C762.974 140.752 766.942 139.984 770.611 138.448C774.366 136.912 777.523 134.565 780.083 131.408L783.795 135.632C780.894 139.216 777.224 141.947 772.787 143.824C768.435 145.616 763.699 146.512 758.579 146.512Z" fill="#E6E6EF"/>
<circle cx="100" cy="100" r="100" transform="matrix(0 1 1 0 50 0)" fill="url(#paint0_linear_35_10)"/>
<circle cx="90" cy="90" r="90" transform="matrix(0 1 1 0 0 10)" fill="url(#paint1_linear_35_10)"/>
<defs>
<linearGradient id="paint0_linear_35_10" x1="100" y1="0" x2="100" y2="200" gradientUnits="userSpaceOnUse">
<stop stop-color="#E6E6EF" stop-opacity="0.8"/>
<stop offset="0.6875" stop-opacity="0"/>
</linearGradient>
<linearGradient id="paint1_linear_35_10" x1="90" y1="0" x2="90" y2="180" gradientUnits="userSpaceOnUse">
<stop stop-color="#2D6CDF"/>
<stop offset="0.33" stop-color="#737373" stop-opacity="0"/>
</linearGradient>
</defs>
</svg>
