<svg width="650" height="96" viewBox="0 0 650 96" fill="none" xmlns="http://www.w3.org/2000/svg">
<path d="M33.296 95.512C27.0667 95.512 21.4347 94.104 16.4 91.288C11.4507 88.3867 7.52533 84.376 4.624 79.256C1.72267 74.136 0.272 68.248 0.272 61.592C0.272 54.8507 1.72267 48.9627 4.624 43.928C7.52533 38.808 11.4507 34.84 16.4 32.024C21.4347 29.1227 27.0667 27.672 33.296 27.672C39.184 27.672 44.4747 29.0373 49.168 31.768C53.9467 34.4987 57.7013 38.3813 60.432 43.416C63.248 48.4507 64.656 54.5093 64.656 61.592C64.656 68.504 63.2907 74.52 60.56 79.64C57.8293 84.76 54.0747 88.6853 49.296 91.416C44.6027 94.1467 39.2693 95.512 33.296 95.512ZM33.68 89.752C38.8 89.752 43.3653 88.6 47.376 86.296C51.472 83.9067 54.672 80.5787 56.976 76.312C59.3653 72.0453 60.56 67.1387 60.56 61.592C60.56 55.96 59.3653 51.0533 56.976 46.872C54.672 42.6053 51.472 39.32 47.376 37.016C43.3653 34.6267 38.8 33.432 33.68 33.432C28.56 33.432 23.952 34.6267 19.856 37.016C15.8453 39.32 12.6453 42.6053 10.256 46.872C7.952 51.0533 6.8 55.96 6.8 61.592C6.8 67.1387 7.952 72.0453 10.256 76.312C12.6453 80.5787 15.8453 83.9067 19.856 86.296C23.952 88.6 28.56 89.752 33.68 89.752ZM60.688 95V73.112L61.84 61.464L60.56 49.816V0.0239944H66.96V95H60.688ZM136.055 95V79.768L135.799 77.464V52.376C135.799 46.1467 134.092 41.4107 130.679 38.168C127.351 34.9253 122.444 33.304 115.959 33.304C111.351 33.304 107.042 34.1147 103.031 35.736C99.1057 37.272 95.735 39.2773 92.919 41.752L89.719 37.144C93.047 34.1573 97.0577 31.8533 101.751 30.232C106.444 28.5253 111.351 27.672 116.471 27.672C124.748 27.672 131.106 29.7627 135.543 33.944C139.98 38.1253 142.199 44.3547 142.199 52.632V95H136.055ZM111.991 95.512C107.042 95.512 102.732 94.744 99.063 93.208C95.479 91.5867 92.7057 89.3253 90.743 86.424C88.8657 83.5227 87.927 80.1947 87.927 76.44C87.927 73.0267 88.695 69.9547 90.231 67.224C91.8523 64.408 94.4977 62.1467 98.167 60.44C101.836 58.648 106.743 57.752 112.887 57.752H137.463V62.744H113.015C106.103 62.744 101.239 64.024 98.423 66.584C95.6923 69.144 94.327 72.344 94.327 76.184C94.327 80.4507 95.9483 83.864 99.191 86.424C102.434 88.984 106.999 90.264 112.887 90.264C118.519 90.264 123.255 88.984 127.095 86.424C131.02 83.864 133.922 80.152 135.799 75.288L137.591 79.64C135.799 84.504 132.727 88.3867 128.375 91.288C124.108 94.104 118.647 95.512 111.991 95.512ZM168.568 95V28.184H174.712V46.488L174.072 44.44C175.949 39.064 179.107 34.9253 183.544 32.024C187.981 29.1227 193.528 27.672 200.184 27.672V33.944C199.928 33.944 199.672 33.944 199.416 33.944C199.16 33.8587 198.904 33.816 198.648 33.816C191.224 33.816 185.421 36.1627 181.24 40.856C177.059 45.464 174.968 51.9067 174.968 60.184V95H168.568ZM222.682 76.568L222.81 68.504L266.97 28.184H275.162L245.85 55.704L242.01 58.904L222.682 76.568ZM217.818 95V0.0239944H224.218V95H217.818ZM270.042 95L240.858 58.392L245.21 53.656L277.978 95H270.042ZM316.171 95.512C309.942 95.512 304.31 94.104 299.275 91.288C294.326 88.3867 290.4 84.376 287.499 79.256C284.598 74.136 283.147 68.248 283.147 61.592C283.147 54.8507 284.598 48.9627 287.499 43.928C290.4 38.808 294.326 34.84 299.275 32.024C304.31 29.1227 309.942 27.672 316.171 27.672C322.059 27.672 327.35 29.0373 332.043 31.768C336.822 34.4987 340.576 38.3813 343.307 43.416C346.123 48.4507 347.531 54.5093 347.531 61.592C347.531 68.504 346.166 74.52 343.435 79.64C340.704 84.76 336.95 88.6853 332.171 91.416C327.478 94.1467 322.144 95.512 316.171 95.512ZM316.555 89.752C321.675 89.752 326.24 88.6 330.251 86.296C334.347 83.9067 337.547 80.5787 339.851 76.312C342.24 72.0453 343.435 67.1387 343.435 61.592C343.435 55.96 342.24 51.0533 339.851 46.872C337.547 42.6053 334.347 39.32 330.251 37.016C326.24 34.6267 321.675 33.432 316.555 33.432C311.435 33.432 306.827 34.6267 302.731 37.016C298.72 39.32 295.52 42.6053 293.131 46.872C290.827 51.0533 289.675 55.96 289.675 61.592C289.675 67.1387 290.827 72.0453 293.131 76.312C295.52 80.5787 298.72 83.9067 302.731 86.296C306.827 88.6 311.435 89.752 316.555 89.752ZM343.563 95V73.112L344.715 61.464L343.435 49.816V0.0239944H349.835V95H343.563ZM402.93 95.512C396.53 95.512 390.813 94.0613 385.778 91.16C380.829 88.2587 376.861 84.248 373.874 79.128C370.973 74.008 369.522 68.1627 369.522 61.592C369.522 54.936 370.973 49.0907 373.874 44.056C376.861 38.936 380.829 34.9253 385.778 32.024C390.813 29.1227 396.53 27.672 402.93 27.672C409.33 27.672 415.047 29.1227 420.082 32.024C425.117 34.9253 429.085 38.936 431.986 44.056C434.887 49.0907 436.338 54.936 436.338 61.592C436.338 68.1627 434.887 74.008 431.986 79.128C429.085 84.248 425.117 88.2587 420.082 91.16C415.047 94.0613 409.33 95.512 402.93 95.512ZM402.93 89.752C408.05 89.752 412.658 88.6 416.754 86.296C420.85 83.9067 424.05 80.5787 426.354 76.312C428.658 72.0453 429.81 67.1387 429.81 61.592C429.81 55.96 428.658 51.0533 426.354 46.872C424.05 42.6053 420.85 39.32 416.754 37.016C412.658 34.6267 408.05 33.432 402.93 33.432C397.81 33.432 393.202 34.6267 389.106 37.016C385.095 39.32 381.895 42.6053 379.506 46.872C377.202 51.0533 376.05 55.96 376.05 61.592C376.05 67.1387 377.202 72.0453 379.506 76.312C381.895 80.5787 385.095 83.9067 389.106 86.296C393.202 88.6 397.81 89.752 402.93 89.752ZM539.393 27.672C544.769 27.672 549.42 28.7387 553.345 30.872C557.356 32.92 560.47 36.0773 562.689 40.344C564.908 44.5253 566.017 49.7307 566.017 55.96V95H559.617V56.472C559.617 48.9627 557.782 43.2453 554.113 39.32C550.444 35.3947 545.324 33.432 538.753 33.432C533.718 33.432 529.366 34.4987 525.697 36.632C522.028 38.7653 519.212 41.752 517.249 45.592C515.286 49.432 514.305 54.04 514.305 59.416V95H507.905V56.472C507.905 48.9627 506.07 43.2453 502.401 39.32C498.732 35.3947 493.612 33.432 487.041 33.432C482.006 33.432 477.654 34.4987 473.985 36.632C470.316 38.7653 467.5 41.752 465.537 45.592C463.574 49.432 462.593 54.04 462.593 59.416V95H456.193V28.184H462.337V46.616L461.441 44.568C463.404 39.3627 466.689 35.2667 471.297 32.28C475.905 29.208 481.452 27.672 487.937 27.672C494.593 27.672 500.182 29.3787 504.705 32.792C509.313 36.12 512.214 41.112 513.409 47.768L511.233 46.872C513.025 41.1547 516.396 36.5467 521.345 33.048C526.294 29.464 532.31 27.672 539.393 27.672ZM619.579 95.512C612.838 95.512 606.864 94.0613 601.659 91.16C596.539 88.2587 592.486 84.248 589.499 79.128C586.598 74.008 585.147 68.1627 585.147 61.592C585.147 54.936 586.512 49.0907 589.243 44.056C592.059 38.936 595.899 34.9253 600.763 32.024C605.627 29.1227 611.088 27.672 617.147 27.672C623.206 27.672 628.624 29.08 633.403 31.896C638.267 34.712 642.064 38.68 644.795 43.8C647.611 48.8347 649.019 54.68 649.019 61.336C649.019 61.592 648.976 61.8907 648.891 62.232C648.891 62.488 648.891 62.7867 648.891 63.128H589.883V58.136H645.435L642.875 60.568C642.96 55.3627 641.851 50.712 639.547 46.616C637.328 42.4347 634.299 39.192 630.459 36.888C626.619 34.4987 622.182 33.304 617.147 33.304C612.198 33.304 607.76 34.4987 603.835 36.888C599.995 39.192 596.966 42.4347 594.747 46.616C592.528 50.712 591.419 55.4053 591.419 60.696V61.848C591.419 67.3093 592.614 72.1733 595.003 76.44C597.478 80.6213 600.848 83.9067 605.115 86.296C609.382 88.6 614.246 89.752 619.707 89.752C623.974 89.752 627.942 88.984 631.611 87.448C635.366 85.912 638.523 83.5653 641.083 80.408L644.795 84.632C641.894 88.216 638.224 90.9467 633.787 92.824C629.435 94.616 624.699 95.512 619.579 95.512Z" fill="#E6E6EF"/>
</svg>
